<svg width="79" height="78" viewBox="0 0 79 78" fill="none" xmlns="http://www.w3.org/2000/svg">
<path d="M76.4095 35.3025L73.6824 33.6675C72.5215 32.9715 71.7355 31.8225 71.3815 30.5175C71.3755 30.4935 71.3695 30.4695 71.3605 30.4455C70.9975 29.1285 71.1055 27.7245 71.7685 26.5275L73.3135 23.7465C74.8915 20.9025 72.8695 17.4015 69.6175 17.3475L66.4075 17.2935C65.0485 17.2695 63.7885 16.6665 62.8285 15.7065C62.8195 15.6975 62.8075 15.6855 62.7985 15.6765C61.8355 14.7165 61.2325 13.4565 61.2115 12.0975L61.1575 8.8875C61.1005 5.6295 57.5995 3.6075 54.7555 5.1885L51.9745 6.7335C50.7805 7.3965 49.3765 7.5045 48.0564 7.1415C48.0325 7.1355 48.0084 7.1295 47.9845 7.1205C46.6795 6.7635 45.5305 5.9805 44.8345 4.8195L43.1995 2.0925C41.5255 -0.6975 37.4845 -0.6975 35.8105 2.0925L34.1815 4.8075C33.4795 5.9775 32.3215 6.7665 31.0075 7.1265C30.9925 7.1295 30.9805 7.1355 30.9655 7.1385C29.6365 7.5045 28.2235 7.3965 27.0175 6.7275L24.2455 5.1885C21.4015 3.6075 17.9005 5.6295 17.8465 8.8815L17.7925 12.0915C17.7685 13.4505 17.1655 14.7105 16.2055 15.6705C16.1965 15.6795 16.1845 15.6915 16.1755 15.7005C15.2155 16.6635 13.9555 17.2665 12.5965 17.2875L9.38645 17.3415C6.13145 17.3985 4.10945 20.8995 5.69045 23.7435L7.23545 26.5245C7.89845 27.7215 8.00645 29.1225 7.64345 30.4425C7.63745 30.4665 7.63145 30.4905 7.62245 30.5145C7.26545 31.8195 6.48245 32.9685 5.32145 33.6645L2.59445 35.2995C-0.195547 36.9735 -0.195547 41.0175 2.59445 42.6885L5.32145 44.3265C6.48245 45.0225 7.26845 46.1715 7.62245 47.4765C7.62845 47.5005 7.63445 47.5245 7.64345 47.5485C8.00645 48.8685 7.89845 50.2695 7.23545 51.4665L5.69045 54.2535C4.11245 57.0975 6.13445 60.5985 9.38645 60.6525L12.5965 60.7065C13.9555 60.7305 15.2155 61.3335 16.1755 62.2935C16.1845 62.3025 16.1965 62.3145 16.2055 62.3235C17.1685 63.2835 17.7715 64.5435 17.7925 65.9025L17.8465 69.1095C17.9005 72.3615 21.4015 74.3835 24.2455 72.8055L27.0265 71.2605C28.2205 70.5975 29.6245 70.4895 30.9445 70.8525C30.9685 70.8585 30.9925 70.8645 31.0165 70.8735C32.3215 71.2305 33.4705 72.0135 34.1665 73.1745L35.8015 75.9015C37.4755 78.6915 41.5165 78.6915 43.1905 75.9015L44.8255 73.1745C45.5215 72.0135 46.6705 71.2275 47.9755 70.8735C47.9995 70.8675 48.0235 70.8615 48.0475 70.8525C49.3645 70.4895 50.7685 70.5975 51.9655 71.2605L54.7465 72.8055C57.5905 74.3835 61.0915 72.3615 61.1455 69.1095L61.1995 65.9025C61.2235 64.5435 61.8265 63.2835 62.7865 62.3235C62.7955 62.3145 62.8075 62.3025 62.8165 62.2935C63.7765 61.3305 65.0365 60.7275 66.3955 60.7065L69.6055 60.6525C72.8575 60.5985 74.8795 57.0975 73.3015 54.2535L71.7565 51.4725C71.0935 50.2755 70.9855 48.8745 71.3484 47.5545C71.3545 47.5305 71.3605 47.5065 71.3695 47.4825C71.7264 46.1775 72.5095 45.0285 73.6705 44.3325L76.3975 42.6945C79.1965 41.0205 79.1964 36.9765 76.4095 35.3025ZM56.6215 32.1195L36.9415 51.7995C36.3775 52.3635 35.6155 52.6785 34.8205 52.6785C34.0255 52.6785 33.2605 52.3635 32.6995 51.7995L22.3405 41.4405C21.1675 40.2675 21.1675 38.3715 22.3405 37.1985C23.5135 36.0255 25.4095 36.0255 26.5825 37.1985L34.8205 45.4365L52.3795 27.8775C53.5525 26.7045 55.4485 26.7045 56.6215 27.8775C57.7945 29.0505 57.7945 30.9465 56.6215 32.1195Z" fill="#148AFF"/>
</svg>
