<svg width="18" height="18" viewBox="0 0 18 18" fill="none" xmlns="http://www.w3.org/2000/svg">
<path d="M11.1264 8.12768e-05C10.9499 0.00284015 10.7817 0.0755097 10.6587 0.202141C10.5358 0.328772 10.4681 0.499019 10.4705 0.675517V1.34184H9.80415C9.71586 1.3406 9.62819 1.35691 9.54626 1.38983C9.46432 1.42276 9.38974 1.47164 9.32686 1.53364C9.26398 1.59564 9.21405 1.66951 9.17997 1.75098C9.14589 1.83244 9.12834 1.91987 9.12834 2.00817C9.12834 2.09647 9.14589 2.1839 9.17997 2.26536C9.21405 2.34683 9.26398 2.4207 9.32686 2.4827C9.38974 2.5447 9.46432 2.59358 9.54626 2.62651C9.62819 2.65943 9.71586 2.67575 9.80415 2.6745H10.4705V3.34082C10.4692 3.42912 10.4855 3.51678 10.5185 3.59872C10.5514 3.68066 10.6003 3.75523 10.6623 3.81811C10.7243 3.88099 10.7982 3.93093 10.8796 3.96501C10.9611 3.99909 11.0485 4.01664 11.1368 4.01664C11.2251 4.01664 11.3125 3.99909 11.394 3.96501C11.4755 3.93093 11.5493 3.88099 11.6113 3.81811C11.6733 3.75523 11.7222 3.68066 11.7551 3.59872C11.7881 3.51678 11.8044 3.42912 11.8031 3.34082V2.6745H12.4695C12.5578 2.67575 12.6454 2.65943 12.7274 2.62651C12.8093 2.59358 12.8839 2.5447 12.9468 2.4827C13.0096 2.4207 13.0596 2.34683 13.0936 2.26536C13.1277 2.1839 13.1453 2.09647 13.1453 2.00817C13.1453 1.91987 13.1277 1.83244 13.0936 1.75098C13.0596 1.66951 13.0096 1.59564 12.9468 1.53364C12.8839 1.47164 12.8093 1.42276 12.7274 1.38983C12.6454 1.35691 12.5578 1.3406 12.4695 1.34184H11.8031V0.675517C11.8044 0.58637 11.7877 0.497884 11.7541 0.415299C11.7205 0.332715 11.6707 0.257711 11.6076 0.194729C11.5445 0.131747 11.4694 0.0820676 11.3867 0.0486332C11.3041 0.0151988 11.2155 -0.00131109 11.1264 8.12768e-05ZM6.73281 2.20338C3.15397 2.99831 0.475586 6.18604 0.475586 10.0041C0.475586 14.4198 4.05576 18 8.4715 18C12.2896 18 15.4773 15.3216 16.2722 11.7428C15.2487 12.3291 14.0666 12.6694 12.8026 12.6694C8.9386 12.6694 5.8062 9.53699 5.8062 5.67296C5.8062 4.40894 6.14644 3.22686 6.73281 2.20338ZM15.1348 4.67347C14.767 4.67347 14.4684 4.97199 14.4684 5.3398V6.00613C14.4684 6.37394 14.1699 6.67245 13.8021 6.67245H13.1358C12.768 6.67245 12.4695 6.97097 12.4695 7.33878C12.4695 7.70659 12.768 8.00511 13.1358 8.00511H13.8021C14.1699 8.00511 14.4684 8.30362 14.4684 8.67143V9.33776C14.4684 9.70557 14.767 10.0041 15.1348 10.0041C15.5026 10.0041 15.8011 9.70557 15.8011 9.33776V8.67143C15.8011 8.30362 16.0996 8.00511 16.4674 8.00511H17.1337C17.5016 8.00511 17.8001 7.70659 17.8001 7.33878C17.8001 6.97097 17.5016 6.67245 17.1337 6.67245H16.4674C16.0996 6.67245 15.8011 6.37394 15.8011 6.00613V5.3398C15.8011 4.97199 15.5026 4.67347 15.1348 4.67347Z" fill="white"/>
</svg>
