<svg width="85" height="10" viewBox="0 0 85 10" fill="none" xmlns="http://www.w3.org/2000/svg">
<line x1="4.91663" y1="5" x2="74.9166" y2="5" stroke="white" stroke-opacity="0.6" stroke-width="2" stroke-dasharray="8 4"/>
<circle cx="4.91663" cy="5" r="4" fill="white"/>
<path d="M75.3333 0C75.2228 0 75.1168 0.0438987 75.0387 0.122039C74.9605 0.200179 74.9166 0.30616 74.9166 0.416667C74.9166 0.417209 74.9166 0.417752 74.9166 0.418294V5V9.58171C74.9166 9.58225 74.9166 9.58279 74.9166 9.58333C74.9166 9.69384 74.9605 9.79982 75.0387 9.87796C75.1168 9.9561 75.2228 10 75.3333 10C75.42 9.99975 75.5045 9.97244 75.575 9.92188L75.5758 9.92269L83.84 5.37842C83.9125 5.34524 83.974 5.29195 84.0171 5.22487C84.0602 5.15779 84.0832 5.07975 84.0833 5C84.0833 4.91802 84.0592 4.83784 84.0139 4.76952C83.9686 4.70119 83.9041 4.64775 83.8286 4.61589L75.5758 0.0773112H75.575C75.5044 0.0270372 75.4199 1.31101e-05 75.3333 0Z" fill="white"/>
</svg>
