<svg width="87" height="86" viewBox="0 0 87 86" fill="none" xmlns="http://www.w3.org/2000/svg">
<path d="M73.5 43C73.5 46.9397 72.724 50.8407 71.2164 54.4805C69.7087 58.1203 67.499 61.4274 64.7132 64.2132C61.9274 66.999 58.6203 69.2087 54.9805 70.7164C51.3407 72.224 47.4397 73 43.5 73C39.5603 73 35.6593 72.224 32.0195 70.7164C28.3797 69.2087 25.0725 66.999 22.2868 64.2132C19.501 61.4274 17.2913 58.1203 15.7836 54.4805C14.276 50.8407 13.5 46.9396 13.5 43C13.5 39.0603 14.276 35.1593 15.7836 31.5195C17.2913 27.8797 19.501 24.5725 22.2868 21.7868C25.0726 19.001 28.3797 16.7912 32.0195 15.2836C35.6593 13.776 39.5604 13 43.5 13C47.4397 13 51.3408 13.776 54.9805 15.2836C58.6203 16.7913 61.9275 19.001 64.7132 21.7868C67.499 24.5726 69.7088 27.8797 71.2164 31.5195C72.724 35.1593 73.5 39.0604 73.5 43L73.5 43Z" stroke="url(#paint0_angular_113_16176)" stroke-width="8" stroke-linecap="round" stroke-linejoin="round" stroke-dasharray="0.1 8"/>
<defs>
<radialGradient id="paint0_angular_113_16176" cx="0" cy="0" r="1" gradientUnits="userSpaceOnUse" gradientTransform="translate(43.5 43) rotate(169.077) scale(30.0267)">
<stop stop-color="white" stop-opacity="0"/>
<stop offset="1" stop-color="white"/>
</radialGradient>
</defs>
</svg>
