<svg width="71" height="70" viewBox="0 0 71 70" fill="none" xmlns="http://www.w3.org/2000/svg">
<path d="M34.7497 26.7258L35.8981 41.0648C35.8981 41.0648 31.6927 41.4258 26.306 41.6117C19.4481 41.8141 12.202 41.6445 10.8731 41.4969C9.05751 41.2891 7.93642 41.0156 7.82158 39.0633C7.72314 37.3734 7.38955 32.5008 7.32939 31.2594C7.25283 29.6461 7.75595 28.3992 9.17236 28.3992C10.5888 28.3992 34.7497 26.7258 34.7497 26.7258Z" fill="white"/>
<path d="M45.0965 20.475C45.0965 20.475 42.7012 17.3305 39.7372 13.7867C35.6301 8.87578 31.1129 4.76328 29.7512 5.21172C27.3723 6.01563 19.7708 8.70625 19.7708 8.70625L34.9739 26.4414L45.0965 20.475Z" fill="white"/>
<path d="M55.8918 27.218L45.4739 20.4586C46.3019 18.9332 47.0326 17.3568 47.6614 15.7391C48.427 13.5516 49.0012 11.0469 49.0012 11.0469C49.7778 11.3364 50.5132 11.7261 51.1887 12.2062C54.7489 14.5031 57.2043 18.2766 57.0512 21.9789C56.8434 25.8234 55.8918 27.218 55.8918 27.218Z" fill="white"/>
<path d="M56.0231 27.3438L56.9582 39.3149C56.9582 39.3149 59.8238 39.0852 60.5293 39.0086C61.2348 38.932 62.3778 38.5274 62.3067 36.8211C62.2192 34.7813 61.7926 29.7883 61.7598 29.4219C61.6559 28.5359 61.0598 27.9617 59.5231 27.6555C58.3698 27.4342 57.1972 27.3298 56.0231 27.3438Z" fill="white"/>
<path d="M56.8926 39.4844L48.1426 46.5609C48.1426 46.5609 51.9324 54.168 52.3754 54.8734C52.9824 55.8469 53.8027 56.0164 54.7652 55.3C55.8918 54.4633 58.6645 50.843 59.2113 49.9844C59.9879 48.7703 59.616 46.375 59.0582 43.9688C58.1941 40.1953 56.8926 39.4844 56.8926 39.4844Z" fill="white"/>
<path d="M47.9184 46.6047L35.9199 41.1742C35.9199 41.1742 26.016 61.1625 25.6059 62.0758C25.1957 62.9891 25.0098 63.8313 26.5191 64.1813C28.4346 64.5981 30.3886 64.8126 32.3488 64.8211C33.9895 64.7719 36.0129 64.4766 37.7246 62.3055C39.6277 59.8555 47.9184 46.6047 47.9184 46.6047Z" fill="white"/>
</svg>
