<svg width="15" height="14" viewBox="0 0 15 14" fill="none" xmlns="http://www.w3.org/2000/svg">
<path fill-rule="evenodd" clip-rule="evenodd" d="M6.72111 0H8.27889C8.62192 0 8.9 0.278082 8.9 0.621113C8.9 1.72782 10.2381 2.28206 11.0206 1.4995C11.2632 1.25694 11.6564 1.25694 11.899 1.4995L13.0005 2.60102C13.2431 2.84357 13.2431 3.23684 13.0005 3.4794C12.218 4.26195 12.7722 5.6 13.8789 5.6C14.2219 5.6 14.5 5.87808 14.5 6.22111V7.77889C14.5 8.12192 14.2219 8.4 13.8789 8.4C12.7722 8.4 12.2179 9.73805 13.0005 10.5206C13.2431 10.7632 13.2431 11.1564 13.0005 11.399L11.899 12.5005C11.6564 12.7431 11.2632 12.7431 11.0206 12.5005C10.238 11.7179 8.9 12.2722 8.9 13.3789C8.9 13.7219 8.62192 14 8.27889 14H6.72111C6.37808 14 6.1 13.7219 6.1 13.3789C6.1 12.2722 4.76195 11.718 3.9794 12.5005C3.73684 12.7431 3.34357 12.7431 3.10101 12.5005L1.9995 11.399C1.75694 11.1564 1.75694 10.7632 1.9995 10.5206C2.78206 9.73805 2.22782 8.4 1.12111 8.4C0.778082 8.4 0.5 8.12192 0.5 7.77889V6.22111C0.5 5.87808 0.778081 5.6 1.12111 5.6C2.22781 5.6 2.78205 4.26195 1.99949 3.47939C1.75694 3.23684 1.75694 2.84357 1.99949 2.60101L3.10101 1.4995C3.34357 1.25694 3.73684 1.25694 3.97939 1.4995C4.76195 2.28205 6.1 1.72781 6.1 0.621111C6.1 0.278081 6.37808 0 6.72111 0ZM11 7C11 8.933 9.433 10.5 7.5 10.5C5.567 10.5 4 8.933 4 7C4 5.067 5.567 3.5 7.5 3.5C9.433 3.5 11 5.067 11 7Z" fill="white"/>
</svg>
