<svg width="18" height="18" viewBox="0 0 18 18" fill="none" xmlns="http://www.w3.org/2000/svg">
<path d="M3.96967 0.96967C4.26256 0.676777 4.73744 0.676777 5.03033 0.96967L6.53033 2.46967C6.82322 2.76256 6.82322 3.23744 6.53033 3.53033L5.03033 5.03033C4.73744 5.32322 4.26256 5.32322 3.96967 5.03033C3.67678 4.73744 3.67678 4.26256 3.96967 3.96967L4.16449 3.77484C3.08099 3.93683 2.25 4.87137 2.25 6C2.25 6.41421 1.91421 6.75 1.5 6.75C1.08579 6.75 0.75 6.41421 0.75 6C0.75 4.02955 2.26977 2.41405 4.20108 2.26174L3.96967 2.03033C3.67678 1.73744 3.67678 1.26256 3.96967 0.96967Z" fill="white"/>
<path d="M16.5 11.25C16.9142 11.25 17.25 11.5858 17.25 12C17.25 13.9705 15.7302 15.5859 13.7989 15.7383L14.0303 15.9697C14.3232 16.2626 14.3232 16.7374 14.0303 17.0303C13.7374 17.3232 13.2626 17.3232 12.9697 17.0303L11.4697 15.5303C11.1768 15.2374 11.1768 14.7626 11.4697 14.4697L12.9697 12.9697C13.2626 12.6768 13.7374 12.6768 14.0303 12.9697C14.3232 13.2626 14.3232 13.7374 14.0303 14.0303L13.8355 14.2252C14.919 14.0632 15.75 13.1286 15.75 12C15.75 11.5858 16.0858 11.25 16.5 11.25Z" fill="white"/>
<path d="M1.5 12C1.5 14.4853 3.51472 16.5 6 16.5C8.48528 16.5 10.5 14.4853 10.5 12C10.5 11.3065 10.3431 10.6496 10.0629 10.0629C9.61914 9.13386 8.86614 8.38086 7.93712 7.93712C7.35043 7.65689 6.69354 7.5 6 7.5C3.51472 7.5 1.5 9.51472 1.5 12Z" fill="white"/>
<path d="M12 10.5C14.4853 10.5 16.5 8.48528 16.5 6C16.5 3.51472 14.4853 1.5 12 1.5C9.51472 1.5 7.5 3.51472 7.5 6C7.5 6.01701 7.50009 6.03401 7.50028 6.05098C7.5012 6.13359 7.55874 6.20387 7.63823 6.22638C7.96531 6.31901 8.28104 6.43868 8.58283 6.58283C9.82152 7.17448 10.8255 8.17848 11.4172 9.41717C11.5613 9.71896 11.681 10.0347 11.7736 10.3618C11.7961 10.4413 11.8664 10.4988 11.949 10.4997C11.966 10.4999 11.983 10.5 12 10.5Z" fill="white"/>
</svg>
