<svg width="29" height="20" viewBox="0 0 29 20" fill="none" xmlns="http://www.w3.org/2000/svg">
<g clip-path="url(#clip0_121_5816)">
<path d="M10.5907 9.5586C10.6737 9.45743 10.7009 9.31935 10.6322 9.20725C9.75182 7.76632 8.69125 6.29396 7.41027 4.8544C5.65475 2.87757 3.85775 1.38333 2.26302 0.270508C1.73144 -0.102711 0.997598 0.191216 0.845903 0.840588C0.608638 1.82763 0.449162 2.87757 0.389522 3.98083C-0.0149959 11.5887 4.63438 17.4523 6.98888 19.9513C7.05632 20.0224 7.14967 19.9254 7.0991 19.8529C6.3484 18.8385 5.55492 17.522 4.91313 15.9019C3.43638 12.1834 3.52973 8.76568 3.75663 6.76424C3.8396 6.03011 4.17022 6.21193 4.46583 6.39102C5.57178 7.06773 6.76978 7.92081 7.98463 9.00629C8.32692 9.31388 8.65235 9.62558 8.96482 9.94002C9.07502 10.0507 9.22412 10.1136 9.37452 10.0945C9.81663 10.0398 10.3275 9.88124 10.5907 9.55722V9.5586Z" fill="white"/>
<path d="M17.9252 9.55859C17.8422 9.45742 17.815 9.31934 17.8837 9.20724C18.764 7.76632 19.8247 6.29395 21.1057 4.85439C22.8612 2.87893 24.6582 1.38469 26.2529 0.271867C26.7845 -0.101353 27.5184 0.191208 27.67 0.841947C27.906 1.829 28.0667 2.87893 28.125 3.98218C28.5295 11.5901 23.8802 17.4536 21.5257 19.9526C21.4584 20.0238 21.3649 19.9267 21.4155 19.8542C22.1662 18.8398 22.9597 17.5233 23.6015 15.9033C25.0782 12.1848 24.9849 8.76703 24.758 6.7656C24.675 6.03147 24.3444 6.21329 24.0487 6.39237C22.9429 7.06909 21.7449 7.92216 20.53 9.00765C20.1877 9.31524 19.8622 9.62695 19.5499 9.94137C19.4395 10.0521 19.2905 10.115 19.14 10.0959C18.698 10.0412 18.1872 9.88259 17.9239 9.55859H17.9252Z" fill="white"/>
<path d="M15.7525 5.49833C16.3139 4.50034 16.9479 3.67872 17.5729 3.01977C17.8244 2.74498 18.1407 3.07036 17.9527 3.35882C16.0286 6.08892 15.5347 8.71101 16.5434 10.0918C16.7404 10.3666 17.3135 11.0132 18.7475 11.221L18.7682 11.2319C18.9239 11.2538 18.986 11.4616 18.872 11.5724C18.155 12.2518 17.2604 13.2388 16.4591 14.5772C15.6047 16.0168 14.7969 17.3676 14.4987 18.3915C14.4676 18.498 14.3756 18.5692 14.2693 18.5692C14.1642 18.5692 14.0709 18.4967 14.0398 18.3915C13.7442 17.3661 12.9546 15.9963 12.1001 14.5677C11.2989 13.2293 10.4159 12.2436 9.68729 11.5628C9.56283 11.4534 9.62506 11.2443 9.79101 11.2224C11.2263 11.0146 11.7981 10.3666 11.9951 10.0932C13.0038 8.71101 12.5099 6.09028 10.5858 3.36018C10.3978 3.07172 10.7141 2.74636 10.9657 3.02115C11.5893 3.67872 12.2246 4.5017 12.786 5.49969C13.503 6.79297 13.8258 7.89075 13.9814 8.46083C14.0229 8.59208 14.054 8.72333 14.0851 8.86687C14.137 9.06372 14.3976 9.06372 14.4495 8.86687C14.4806 8.73562 14.5221 8.60438 14.5532 8.46083C14.7088 7.89075 15.0316 6.79434 15.7486 5.49969L15.7525 5.49833Z" fill="white"/>
</g>
<defs>
<clipPath id="clip0_121_5816">
<rect width="28" height="20" fill="white" transform="translate(0.200195)"/>
</clipPath>
</defs>
</svg>
