<svg width="168" height="122" viewBox="0 0 168 122" fill="none" xmlns="http://www.w3.org/2000/svg">
<path d="M62.3439 57.7438C62.8418 57.1267 63.0052 56.2845 62.5929 55.6007C57.3109 46.8113 50.9477 37.8301 43.2621 29.0491C32.7293 16.9908 21.9477 7.87617 12.3795 1.08817C9.19014 -1.1884 4.78723 0.604501 3.87709 4.56556C2.45354 10.5864 1.49672 16.9908 1.13889 23.7204C-1.28815 70.1273 26.6073 105.894 40.7339 121.137C41.1384 121.571 41.6985 120.979 41.3951 120.537C36.8911 114.349 32.1304 106.319 28.2798 96.4371C19.4195 73.7548 19.9796 52.9072 21.3409 40.6988C21.8388 36.2207 23.8224 37.3298 25.596 38.4222C32.2315 42.55 39.4193 47.7536 46.7082 54.3748C48.7618 56.2511 50.7144 58.1524 52.5891 60.0704C53.2503 60.7459 54.1449 61.1295 55.0472 61.0127C57.6999 60.6792 60.7648 59.7118 62.3439 57.7355V57.7438Z" fill="url(#paint0_linear_149_17)"/>
<path d="M106.35 57.7436C105.852 57.1265 105.689 56.2843 106.101 55.6005C111.383 46.8111 117.746 37.8299 125.432 29.0489C135.965 16.9989 146.746 7.88429 156.315 1.09628C159.504 -1.18028 163.907 0.604277 164.817 4.57368C166.233 10.5945 167.197 16.9989 167.547 23.7285C169.974 70.1355 142.079 105.902 127.952 121.146C127.548 121.579 126.988 120.987 127.291 120.545C131.795 114.358 136.556 106.327 140.407 96.4452C149.267 73.763 148.707 52.9153 147.345 40.7069C146.848 36.2288 144.864 37.3379 143.09 38.4303C136.455 42.5581 129.267 47.7617 121.978 54.3829C119.924 56.2592 117.972 58.1606 116.097 60.0785C115.436 60.754 114.541 61.1376 113.639 61.0208C110.986 60.6873 107.921 59.72 106.342 57.7436H106.35Z" fill="url(#paint1_linear_149_17)"/>
<path d="M93.3117 32.9765C96.68 26.889 100.484 21.8772 104.233 17.8578C105.742 16.1817 107.641 18.1664 106.513 19.9259C94.9686 36.579 92.0048 52.5734 98.0569 60.9958C99.2393 62.672 102.678 66.6164 111.281 67.8839L111.406 67.9506C112.339 68.084 112.712 69.3516 112.028 70.027C107.726 74.1716 102.359 80.1924 97.5512 88.3563C92.4249 97.1374 87.5786 105.376 85.7894 111.622C85.6027 112.273 85.0504 112.706 84.4125 112.706C83.7824 112.706 83.2223 112.264 83.0356 111.622C81.262 105.368 76.5246 97.0123 71.3983 88.2979C66.5909 80.134 61.2934 74.1215 56.9216 69.9687C56.1748 69.3015 56.5482 68.0257 57.5439 67.8922C66.1552 66.6247 69.5858 62.672 70.7682 61.0042C76.8202 52.5734 73.8564 36.5874 62.3124 19.9342C61.1845 18.1747 63.0825 16.19 64.5917 17.8662C68.3334 21.8772 72.1451 26.8974 75.5134 32.9849C79.8151 40.8736 81.7521 47.5699 82.6856 51.0473C82.9345 51.8479 83.1212 52.6484 83.3079 53.524C83.6191 54.7248 85.1826 54.7248 85.4938 53.524C85.6805 52.7235 85.9294 51.9229 86.1161 51.0473C87.0496 47.5699 88.9866 40.882 93.2883 32.9849L93.3117 32.9765Z" fill="url(#paint2_linear_149_17)"/>
<defs>
<linearGradient id="paint0_linear_149_17" x1="31.9086" y1="0.0866699" x2="31.9086" y2="121.289" gradientUnits="userSpaceOnUse">
<stop stop-color="#09F8F9"/>
<stop offset="1" stop-color="#5526FF"/>
</linearGradient>
<linearGradient id="paint1_linear_149_17" x1="136.782" y1="0.0932007" x2="136.782" y2="121.297" gradientUnits="userSpaceOnUse">
<stop stop-color="#09F8F9"/>
<stop offset="1" stop-color="#5526FF"/>
</linearGradient>
<linearGradient id="paint2_linear_149_17" x1="84.4533" y1="17.2242" x2="84.4533" y2="112.706" gradientUnits="userSpaceOnUse">
<stop stop-color="#09F8F9"/>
<stop offset="1" stop-color="#5526FF"/>
</linearGradient>
</defs>
</svg>
