<svg width="28" height="6" viewBox="0 0 28 6" fill="none" xmlns="http://www.w3.org/2000/svg">
<line x1="2" y1="3" x2="22" y2="3" stroke="white" stroke-opacity="0.6" stroke-width="2" stroke-dasharray="6 2"/>
<circle cx="2" cy="3.0625" r="2" fill="white"/>
<path d="M22.2727 0C22.2004 0 22.131 0.0263392 22.0799 0.0732233C22.0287 0.120107 22 0.183696 22 0.25C22 0.250326 22 0.250651 22 0.250977V3V5.74902C22 5.74935 22 5.74967 22 5.75C22 5.8163 22.0287 5.87989 22.0799 5.92678C22.131 5.97366 22.2004 6 22.2727 6C22.3295 5.99985 22.3848 5.98346 22.4309 5.95312L22.4315 5.95361L27.8407 3.22705C27.8882 3.20714 27.9284 3.17517 27.9567 3.13492C27.9849 3.09468 27.9999 3.04785 28 3C28 2.95081 27.9842 2.90271 27.9546 2.86171C27.9249 2.82071 27.8827 2.78865 27.8333 2.76953L22.4315 0.0463867H22.4309C22.3847 0.0162223 22.3294 7.86609e-06 22.2727 0Z" fill="white"/>
</svg>
