<svg width="71" height="70" viewBox="0 0 71 70" fill="none" xmlns="http://www.w3.org/2000/svg">
<path d="M43.1573 27.1633H28.6815C28.3493 27.1633 28.08 27.4326 28.08 27.7648V42.2406C28.08 42.5729 28.3493 42.8422 28.6815 42.8422H43.1573C43.4895 42.8422 43.7589 42.5729 43.7589 42.2406V27.7648C43.7589 27.4326 43.4895 27.1633 43.1573 27.1633Z" fill="white"/>
<path d="M27.4783 11.4844H13.0026C12.6703 11.4844 12.401 11.7537 12.401 12.0859V26.5617C12.401 26.894 12.6703 27.1633 13.0026 27.1633H27.4783C27.8106 27.1633 28.0799 26.894 28.0799 26.5617V12.0859C28.0799 11.7537 27.8106 11.4844 27.4783 11.4844Z" fill="white"/>
<path d="M58.8306 11.4844H44.3549C44.0226 11.4844 43.7533 11.7537 43.7533 12.0859V26.5617C43.7533 26.894 44.0226 27.1633 44.3549 27.1633H58.8306C59.1629 27.1633 59.4322 26.894 59.4322 26.5617V12.0859C59.4322 11.7537 59.1629 11.4844 58.8306 11.4844Z" fill="white"/>
<path d="M27.4783 42.8367H13.0026C12.6703 42.8367 12.401 43.106 12.401 43.4383V57.9141C12.401 58.2463 12.6703 58.5156 13.0026 58.5156H27.4783C27.8106 58.5156 28.0799 58.2463 28.0799 57.9141V43.4383C28.0799 43.106 27.8106 42.8367 27.4783 42.8367Z" fill="white"/>
<path d="M58.8306 42.8367H44.3549C44.0226 42.8367 43.7533 43.106 43.7533 43.4383V57.9141C43.7533 58.2463 44.0226 58.5156 44.3549 58.5156H58.8306C59.1629 58.5156 59.4322 58.2463 59.4322 57.9141V43.4383C59.4322 43.106 59.1629 42.8367 58.8306 42.8367Z" fill="white"/>
</svg>
