<svg xmlns="http://www.w3.org/2000/svg" width="8" height="9" viewBox="0 0 8 9" fill="none">
  <path d="M7.64225 0.353935C7.62929 0.354345 7.61637 0.355478 7.60354 0.35733H5.56294C5.51686 0.356679 5.47112 0.36519 5.42837 0.38237C5.38561 0.39955 5.3467 0.425055 5.31389 0.457404C5.28108 0.489753 5.25502 0.528301 5.23724 0.570806C5.21946 0.613311 5.2103 0.658927 5.2103 0.705003C5.2103 0.751078 5.21946 0.796694 5.23724 0.839199C5.25502 0.881705 5.28108 0.920252 5.31389 0.952601C5.3467 0.98495 5.38561 1.01046 5.42837 1.02764C5.47112 1.04481 5.51686 1.05333 5.56294 1.05267H6.80971L3.23101 4.63125C3.19764 4.66329 3.171 4.70166 3.15265 4.74412C3.1343 4.78658 3.1246 4.83228 3.12413 4.87853C3.12366 4.92479 3.13242 4.97067 3.14991 5.0135C3.16739 5.05632 3.19325 5.09523 3.22596 5.12794C3.25867 5.16065 3.29757 5.1865 3.3404 5.20399C3.38323 5.22147 3.42911 5.23023 3.47537 5.22976C3.52163 5.22929 3.56732 5.2196 3.60978 5.20124C3.65225 5.18289 3.69062 5.15625 3.72266 5.12288L7.30135 1.5443V2.79104C7.3007 2.83711 7.30921 2.88285 7.32639 2.9256C7.34357 2.96835 7.36908 3.00726 7.40143 3.04007C7.43378 3.07288 7.47233 3.09894 7.51484 3.11672C7.55734 3.1345 7.60296 3.14366 7.64904 3.14366C7.69511 3.14366 7.74073 3.1345 7.78324 3.11672C7.82574 3.09894 7.86429 3.07288 7.89664 3.04007C7.92899 3.00726 7.9545 2.96835 7.97168 2.9256C7.98886 2.88285 7.99737 2.83711 7.99672 2.79104V0.749141C8.00364 0.699085 7.99957 0.648121 7.98479 0.599798C7.97001 0.551475 7.94488 0.506955 7.91114 0.469336C7.8774 0.431718 7.83586 0.401906 7.78942 0.381976C7.74298 0.362046 7.69276 0.352477 7.64225 0.353935ZM0.695367 1.74802C0.315327 1.74802 0 2.06334 0 2.44336V7.65845C0 8.03847 0.315327 8.35379 0.695367 8.35379H5.91062C6.29066 8.35379 6.60599 8.03847 6.60599 7.65845V4.18172V3.28538L5.91062 3.98073V4.87707V7.65845H0.695367V2.44336H3.47683H4.1722H4.37321L5.06857 1.74802H4.1722H3.47683H0.695367Z" fill="white"/>
</svg>