<svg width="512" height="512" viewBox="0 0 512 512" fill="none" xmlns="http://www.w3.org/2000/svg">
<g clip-path="url(#clip0_116_16260)">
<path d="M256 512C397.868 512 512 397.868 512 256C512 114.132 397.868 0 256 0C114.132 0 0 114.132 0 256C0 397.868 114.132 512 256 512Z" fill="#2775CA"/>
<path d="M326.4 296.532C326.4 259.2 304 246.4 259.2 241.067C227.2 236.8 220.8 228.268 220.8 213.332C220.8 198.397 231.467 188.8 252.8 188.8C272 188.8 282.667 195.2 288 211.2C289.067 214.4 292.267 216.532 295.467 216.532H312.532C316.8 216.532 320 213.332 320 209.067V208C315.732 184.532 296.532 166.4 272 164.267V138.667C272 134.4 268.8 131.2 263.467 130.132H247.467C243.2 130.132 240 133.332 238.932 138.667V163.2C206.932 167.467 186.667 188.8 186.667 215.467C186.667 250.667 208 264.532 252.8 269.868C282.667 275.2 292.267 281.6 292.267 298.668C292.267 315.735 277.332 327.468 257.067 327.468C229.332 327.468 219.732 315.732 216.532 299.732C215.467 295.467 212.267 293.332 209.067 293.332H190.932C186.667 293.332 183.467 296.532 183.467 300.8V301.868C187.732 328.532 204.8 347.732 240 353.068V378.668C240 382.932 243.2 386.132 248.532 387.2H264.532C268.8 387.2 272 384 273.067 378.668V353.068C305.067 347.732 326.4 325.332 326.4 296.532Z" fill="white"/>
<path d="M201.6 408.532C118.4 378.667 75.7323 285.867 106.667 203.732C122.667 158.932 157.867 124.8 201.6 108.8C205.867 106.667 208 103.467 208 98.1324V83.2C208 78.9324 205.867 75.7324 201.6 74.6675C200.532 74.6675 198.4 74.6675 197.332 75.7324C95.9998 107.732 40.5323 215.467 72.5323 316.8C91.7323 376.532 137.6 422.4 197.332 441.6C201.6 443.732 205.867 441.6 206.932 437.332C208 436.267 208 435.2 208 433.068V418.132C208 414.932 204.8 410.667 201.6 408.532ZM314.667 75.7324C310.4 73.6 306.132 75.7324 305.067 80C304 81.0675 304 82.1324 304 84.2675V99.2C304 103.467 307.2 107.732 310.4 109.867C393.6 139.732 436.267 232.532 405.332 314.667C389.332 359.467 354.132 393.6 310.4 409.6C306.132 411.732 304 414.932 304 420.267V435.2C304 439.467 306.132 442.667 310.4 443.732C311.467 443.732 313.6 443.732 314.667 442.668C416 410.668 471.467 302.932 439.467 201.6C420.267 140.8 373.332 94.9324 314.667 75.7324Z" fill="white"/>
</g>
<defs>
<clipPath id="clip0_116_16260">
<rect width="512" height="512" fill="white"/>
</clipPath>
</defs>
</svg>
